<?xml version="1.0" encoding="UTF-8" standalone="no"?>
<!-- Created with Inkscape (http://www.inkscape.org/) -->

<svg
   xmlns:dc="http://purl.org/dc/elements/1.1/"
   xmlns:cc="http://creativecommons.org/ns#"
   xmlns:rdf="http://www.w3.org/1999/02/22-rdf-syntax-ns#"
   xmlns:svg="http://www.w3.org/2000/svg"
   xmlns="http://www.w3.org/2000/svg"
   xmlns:sodipodi="http://sodipodi.sourceforge.net/DTD/sodipodi-0.dtd"
   xmlns:inkscape="http://www.inkscape.org/namespaces/inkscape"
   version="1.1"
   id="svg63274"
   xml:space="preserve"
   width="1056"
   height="816"
   viewBox="0 0 1056 816"
   sodipodi:docname="Fig 5 Local network.svg"
   inkscape:version="0.92.3 (2405546, 2018-03-11)"><metadata
     id="metadata63280"><rdf:RDF><cc:Work
         rdf:about=""><dc:format>image/svg+xml</dc:format><dc:type
           rdf:resource="http://purl.org/dc/dcmitype/StillImage" /><dc:title></dc:title></cc:Work></rdf:RDF></metadata><defs
     id="defs63278"><clipPath
       clipPathUnits="userSpaceOnUse"
       id="clipPath63298"><path
         d="M 0,612 H 792 V 0 H 0 Z"
         id="path63296"
         inkscape:connector-curvature="0" /></clipPath></defs><sodipodi:namedview
     pagecolor="#ffffff"
     bordercolor="#666666"
     borderopacity="1"
     objecttolerance="10"
     gridtolerance="10"
     guidetolerance="10"
     inkscape:pageopacity="0"
     inkscape:pageshadow="2"
     inkscape:window-width="1366"
     inkscape:window-height="706"
     id="namedview63276"
     showgrid="false"
     inkscape:zoom="0.81802549"
     inkscape:cx="302.00546"
     inkscape:cy="492.05327"
     inkscape:window-x="-8"
     inkscape:window-y="-8"
     inkscape:window-maximized="1"
     inkscape:current-layer="g63282" /><g
     id="g63282"
     inkscape:groupmode="layer"
     inkscape:label="caimg fig5 net local v000"
     transform="matrix(1.3333333,0,0,-1.3333333,0,816)"><path
       inkscape:connector-curvature="0"
       id="path63302"
       style="fill:#94cddc;fill-opacity:1;fill-rule:evenodd;stroke:none"
       d="m 103.17177,518.68258 c 0,6.629 5.374,12.003 12.003,12.003 v 0 c 6.629,0 12.002,-5.374 12.002,-12.003 v 0 c 0,-6.629 -5.373,-12.003 -12.002,-12.003 v 0 c -6.629,0 -12.003,5.374 -12.003,12.003 0,0 0,0 0,0 z" /><path
       inkscape:connector-curvature="0"
       id="path63306"
       style="fill:none;stroke:#33859c;stroke-width:3.00099993;stroke-linecap:butt;stroke-linejoin:round;stroke-miterlimit:10;stroke-dasharray:none;stroke-opacity:1"
       d="m 103.17177,518.68258 c 0,6.629 5.374,12.003 12.003,12.003 v 0 c 6.629,0 12.002,-5.374 12.002,-12.003 v 0 c 0,-6.629 -5.373,-12.003 -12.002,-12.003 v 0 c -6.629,0 -12.003,5.374 -12.003,12.003 0,0 0,0 0,0 z" /><path
       inkscape:connector-curvature="0"
       id="path63310"
       style="fill:none;stroke:#4cacc5;stroke-width:3.00099993;stroke-linecap:butt;stroke-linejoin:round;stroke-miterlimit:10;stroke-dasharray:none;stroke-opacity:1"
       d="M 55.161267,518.68258 H 100.20127" /><path
       inkscape:connector-curvature="0"
       id="path63314"
       style="fill:none;stroke:#4cacc5;stroke-width:3.00099993;stroke-linecap:round;stroke-linejoin:miter;stroke-miterlimit:10;stroke-dasharray:none;stroke-opacity:1"
       d="m 91.199367,523.93448 9.002003,-5.252 -9.002003,-5.251" /><path
       inkscape:connector-curvature="0"
       id="path63318"
       style="fill:none;stroke:#4cacc5;stroke-width:3.00099993;stroke-linecap:butt;stroke-linejoin:round;stroke-miterlimit:10;stroke-dasharray:none;stroke-opacity:1"
       d="m 70.664567,563.19358 31.848003,-31.849" /><path
       inkscape:connector-curvature="0"
       id="path63322"
       style="fill:none;stroke:#4cacc5;stroke-width:3.00099993;stroke-linecap:round;stroke-linejoin:miter;stroke-miterlimit:10;stroke-dasharray:none;stroke-opacity:1"
       d="m 99.860967,541.42368 2.652003,-10.079 -10.079003,2.653" /><path
       inkscape:connector-curvature="0"
       id="path63326"
       style="fill:none;stroke:#4cacc5;stroke-width:3.00099993;stroke-linecap:butt;stroke-linejoin:round;stroke-miterlimit:10;stroke-dasharray:none;stroke-opacity:1"
       d="m 115.17437,458.66788 v 45.041" /><path
       inkscape:connector-curvature="0"
       id="path63330"
       style="fill:none;stroke:#4cacc5;stroke-width:3.00099993;stroke-linecap:round;stroke-linejoin:miter;stroke-miterlimit:10;stroke-dasharray:none;stroke-opacity:1"
       d="m 109.92437,494.70628 5.25,9.003 5.252,-9.002" /><path
       inkscape:connector-curvature="0"
       id="path63334"
       style="fill:none;stroke:#4cacc5;stroke-width:3.00099993;stroke-linecap:butt;stroke-linejoin:round;stroke-miterlimit:10;stroke-dasharray:none;stroke-opacity:1"
       d="m 115.17437,578.69738 v -45.041" /><path
       inkscape:connector-curvature="0"
       id="path63338"
       style="fill:none;stroke:#4cacc5;stroke-width:3.00099993;stroke-linecap:round;stroke-linejoin:miter;stroke-miterlimit:10;stroke-dasharray:none;stroke-opacity:1"
       d="m 120.42547,542.65858 -5.251,-9.002 -5.251,9.002" /><path
       inkscape:connector-curvature="0"
       id="path63342"
       style="fill:none;stroke:#4cacc5;stroke-width:3.00099993;stroke-linecap:butt;stroke-linejoin:round;stroke-miterlimit:10;stroke-dasharray:none;stroke-opacity:1"
       d="m 70.664567,473.23028 31.848003,31.849" /><path
       inkscape:connector-curvature="0"
       id="path63346"
       style="fill:none;stroke:#4cacc5;stroke-width:3.00099993;stroke-linecap:round;stroke-linejoin:miter;stroke-miterlimit:10;stroke-dasharray:none;stroke-opacity:1"
       d="m 92.433867,502.42748 10.079003,2.652 -2.653003,-10.079" /><path
       inkscape:connector-curvature="0"
       id="path63350"
       style="fill:#94cddc;fill-opacity:1;fill-rule:evenodd;stroke:none"
       d="m 153.93397,368.67888 c 0,6.629 5.374,12.003 12.003,12.003 6.629,0 12.002,-5.374 12.002,-12.003 0,-6.629 -5.373,-12.003 -12.002,-12.003 -6.629,0 -12.003,5.374 -12.003,12.003 z" /><path
       inkscape:connector-curvature="0"
       id="path63354"
       style="fill:none;stroke:#33859c;stroke-width:3.00099993;stroke-linecap:butt;stroke-linejoin:round;stroke-miterlimit:10;stroke-dasharray:none;stroke-opacity:1"
       d="m 153.93397,368.67888 c 0,6.629 5.374,12.003 12.003,12.003 6.629,0 12.002,-5.374 12.002,-12.003 0,-6.629 -5.373,-12.003 -12.002,-12.003 -6.629,0 -12.003,5.374 -12.003,12.003 z" /><path
       inkscape:connector-curvature="0"
       id="path63358"
       style="fill:none;stroke:#4cacc5;stroke-width:3.00099993;stroke-linecap:butt;stroke-linejoin:round;stroke-miterlimit:10;stroke-dasharray:none;stroke-opacity:1"
       d="M 65.914667,400.68678 H 106.42367" /><path
       inkscape:connector-curvature="0"
       id="path63362"
       style="fill:#4cacc5;fill-opacity:1;fill-rule:evenodd;stroke:none"
       d="m 104.92347,405.18828 9.002,-4.502 -9.002,-4.5 z" /><path
       inkscape:connector-curvature="0"
       id="path63366"
       style="fill:none;stroke:#4cacc5;stroke-width:3.00099993;stroke-linecap:butt;stroke-linejoin:round;stroke-miterlimit:10;stroke-dasharray:none;stroke-opacity:1"
       d="m 133.92957,392.68478 16.752,-10.933" /><path
       inkscape:connector-curvature="0"
       id="path63370"
       style="fill:#4cacc5;fill-opacity:1;fill-rule:evenodd;stroke:none"
       d="m 151.88587,386.34118 5.078,-8.69 -9.998,1.151 z" /><path
       inkscape:connector-curvature="0"
       id="path63374"
       style="fill:none;stroke:#4cacc5;stroke-width:3.00099993;stroke-linecap:butt;stroke-linejoin:round;stroke-miterlimit:10;stroke-dasharray:none;stroke-opacity:1"
       d="m 133.92957,337.64178 17.73,17.731" /><path
       inkscape:connector-curvature="0"
       id="path63378"
       style="fill:#4cacc5;fill-opacity:1;fill-rule:evenodd;stroke:none"
       d="m 147.41597,357.49458 9.548,3.182 -3.183,-9.548 z" /><path
       inkscape:connector-curvature="0"
       id="path63382"
       style="fill:#ebf0de;fill-opacity:1;fill-rule:evenodd;stroke:none"
       d="m 113.92517,400.68678 c 0,6.629 5.374,12.003 12.003,12.003 6.629,0 12.002,-5.374 12.002,-12.003 0,-6.629 -5.373,-12.003 -12.002,-12.003 -6.629,0 -12.003,5.374 -12.003,12.003 z" /><path
       inkscape:connector-curvature="0"
       id="path63386"
       style="fill:none;stroke:#c4d79c;stroke-width:3.00099993;stroke-linecap:butt;stroke-linejoin:round;stroke-miterlimit:10;stroke-dasharray:none;stroke-opacity:1"
       d="m 113.92517,400.68678 c 0,6.629 5.374,12.003 12.003,12.003 6.629,0 12.002,-5.374 12.002,-12.003 0,-6.629 -5.373,-12.003 -12.002,-12.003 -6.629,0 -12.003,5.374 -12.003,12.003 z" /><path
       inkscape:connector-curvature="0"
       id="path63390"
       style="fill:#ebf0de;fill-opacity:1;fill-rule:evenodd;stroke:none"
       d="m 113.92517,328.66898 c 0,6.629 5.374,12.003 12.003,12.003 6.629,0 12.002,-5.374 12.002,-12.003 v 0 c 0,-6.629 -5.373,-12.003 -12.002,-12.003 -6.629,0 -12.003,5.374 -12.003,12.003 z" /><path
       inkscape:connector-curvature="0"
       id="path63394"
       style="fill:none;stroke:#c4d79c;stroke-width:3.00099993;stroke-linecap:butt;stroke-linejoin:round;stroke-miterlimit:10;stroke-dasharray:none;stroke-opacity:1"
       d="m 113.92517,328.66898 c 0,6.629 5.374,12.003 12.003,12.003 6.629,0 12.002,-5.374 12.002,-12.003 v 0 c 0,-6.629 -5.373,-12.003 -12.002,-12.003 -6.629,0 -12.003,5.374 -12.003,12.003 z" /><path
       inkscape:connector-curvature="0"
       id="path63398"
       style="fill:none;stroke:#4cacc5;stroke-width:3.00099993;stroke-linecap:butt;stroke-linejoin:round;stroke-miterlimit:10;stroke-dasharray:none;stroke-opacity:1"
       d="m 93.920867,369.64958 17.730003,17.731" /><path
       inkscape:connector-curvature="0"
       id="path63402"
       style="fill:#4cacc5;fill-opacity:1;fill-rule:evenodd;stroke:none"
       d="m 107.40717,389.50248 9.548,3.182 -3.183,-9.548 z" /><path
       inkscape:connector-curvature="0"
       id="path63406"
       style="fill:#ebf0de;fill-opacity:1;fill-rule:evenodd;stroke:none"
       d="m 73.916467,360.67688 c 0,6.629 5.374,12.003 12.003,12.003 6.629,0 12.002,-5.374 12.002,-12.003 v 0 c 0,-6.629 -5.373,-12.003 -12.002,-12.003 -6.629,0 -12.003,5.374 -12.003,12.003 z" /><path
       inkscape:connector-curvature="0"
       id="path63410"
       style="fill:none;stroke:#c4d79c;stroke-width:3.00099993;stroke-linecap:butt;stroke-linejoin:round;stroke-miterlimit:10;stroke-dasharray:none;stroke-opacity:1"
       d="m 73.916467,360.67688 c 0,6.629 5.374,12.003 12.003,12.003 6.629,0 12.002,-5.374 12.002,-12.003 v 0 c 0,-6.629 -5.373,-12.003 -12.002,-12.003 -6.629,0 -12.003,5.374 -12.003,12.003 z" /><path
       inkscape:connector-curvature="0"
       id="path63414"
       style="fill:#ebf0de;fill-opacity:1;fill-rule:evenodd;stroke:none"
       d="m 41.909467,400.68678 c 0,6.629 5.374,12.003 12.003,12.003 6.629,0 12.002,-5.374 12.002,-12.003 0,-6.629 -5.373,-12.003 -12.002,-12.003 -6.629,0 -12.003,5.374 -12.003,12.003 z" /><path
       inkscape:connector-curvature="0"
       id="path63418"
       style="fill:none;stroke:#c4d79c;stroke-width:3.00099993;stroke-linecap:butt;stroke-linejoin:round;stroke-miterlimit:10;stroke-dasharray:none;stroke-opacity:1"
       d="m 41.909467,400.68678 c 0,6.629 5.374,12.003 12.003,12.003 6.629,0 12.002,-5.374 12.002,-12.003 0,-6.629 -5.373,-12.003 -12.002,-12.003 -6.629,0 -12.003,5.374 -12.003,12.003 z" /><path
       inkscape:connector-curvature="0"
       id="path63422"
       style="fill:none;stroke:#4cacc5;stroke-width:3.00099993;stroke-linecap:butt;stroke-linejoin:round;stroke-miterlimit:10;stroke-dasharray:none;stroke-opacity:1"
       d="M 65.914667,328.66898 H 106.42367" /><path
       inkscape:connector-curvature="0"
       id="path63426"
       style="fill:#4cacc5;fill-opacity:1;fill-rule:evenodd;stroke:none"
       d="m 104.92347,333.17058 9.002,-4.502 -9.002,-4.5 z" /><path
       inkscape:connector-curvature="0"
       id="path63430"
       style="fill:#ebf0de;fill-opacity:1;fill-rule:evenodd;stroke:none"
       d="m 41.909467,328.66898 c 0,6.629 5.374,12.003 12.003,12.003 6.629,0 12.002,-5.374 12.002,-12.003 v 0 c 0,-6.629 -5.373,-12.003 -12.002,-12.003 -6.629,0 -12.003,5.374 -12.003,12.003 z" /><path
       inkscape:connector-curvature="0"
       id="path63434"
       style="fill:none;stroke:#c4d79c;stroke-width:3.00099993;stroke-linecap:butt;stroke-linejoin:round;stroke-miterlimit:10;stroke-dasharray:none;stroke-opacity:1"
       d="m 41.909467,328.66898 c 0,6.629 5.374,12.003 12.003,12.003 6.629,0 12.002,-5.374 12.002,-12.003 v 0 c 0,-6.629 -5.373,-12.003 -12.002,-12.003 -6.629,0 -12.003,5.374 -12.003,12.003 z" /><path
       inkscape:connector-curvature="0"
       id="path63438"
       style="fill:#94cddc;fill-opacity:1;fill-rule:evenodd;stroke:none"
       d="m 115.20417,211.17738 c 0,6.629 5.374,12.003 12.003,12.003 6.628,0 12.002,-5.374 12.002,-12.003 v 0 c 0,-6.629 -5.374,-12.003 -12.002,-12.003 -6.629,0 -12.003,5.374 -12.003,12.003 z" /><path
       inkscape:connector-curvature="0"
       id="path63442"
       style="fill:none;stroke:#33859c;stroke-width:3.00099993;stroke-linecap:butt;stroke-linejoin:round;stroke-miterlimit:10;stroke-dasharray:none;stroke-opacity:1"
       d="m 115.20417,211.17738 c 0,6.629 5.374,12.003 12.003,12.003 6.628,0 12.002,-5.374 12.002,-12.003 v 0 c 0,-6.629 -5.374,-12.003 -12.002,-12.003 -6.629,0 -12.003,5.374 -12.003,12.003 z" /><path
       inkscape:connector-curvature="0"
       id="path63446"
       style="fill:none;stroke:#4cacc5;stroke-width:3.00099993;stroke-linecap:butt;stroke-linejoin:round;stroke-miterlimit:10;stroke-dasharray:none;stroke-opacity:1"
       d="M 67.193667,211.17738 H 107.70267" /><path
       inkscape:connector-curvature="0"
       id="path63450"
       style="fill:#4cacc5;fill-opacity:1;fill-rule:evenodd;stroke:none"
       d="m 106.20237,215.67898 9.002,-4.502 -9.002,-4.5 z" /><path
       inkscape:connector-curvature="0"
       id="path63454"
       style="fill:#ebf0de;fill-opacity:1;fill-rule:evenodd;stroke:none"
       d="m 43.188367,211.17738 c 0,6.629 5.374,12.003 12.003,12.003 6.628,0 12.002,-5.374 12.002,-12.003 v 0 c 0,-6.629 -5.374,-12.003 -12.002,-12.003 -6.629,0 -12.003,5.374 -12.003,12.003 z" /><path
       inkscape:connector-curvature="0"
       id="path63458"
       style="fill:none;stroke:#c4d79c;stroke-width:3.00099993;stroke-linecap:butt;stroke-linejoin:round;stroke-miterlimit:10;stroke-dasharray:none;stroke-opacity:1"
       d="m 43.188367,211.17738 c 0,6.629 5.374,12.003 12.003,12.003 6.628,0 12.002,-5.374 12.002,-12.003 v 0 c 0,-6.629 -5.374,-12.003 -12.002,-12.003 -6.629,0 -12.003,5.374 -12.003,12.003 z" /></g></svg>